<svg width="100" height="59" viewBox="0 0 100 59" fill="none" xmlns="http://www.w3.org/2000/svg">
<path d="M68.2722 41.2776C68.0669 40.7809 51.0165 7.24688 50.7407 6.78838C49.8426 4.65509 48.271 2.77652 46.1028 1.52202C40.8043 -1.56011 33.9982 0.203838 30.8935 5.46383C28.7638 9.06813 28.9306 13.3857 30.9576 16.7352C31.1629 17.2319 47.482 49.3268 47.7578 49.7917C47.9631 50.2884 48.2069 50.766 48.4891 51.2308C49.3872 53.3641 50.9588 55.2427 53.127 56.5036C58.4256 59.5857 65.2316 57.8218 68.3364 52.5618C70.4661 48.9575 70.2993 44.6399 68.2722 41.2903V41.2776Z" fill="url(#paint0_linear_11_5412)"/>
<path d="M48.5853 18.5819C50.452 16.6078 51.5938 13.9523 51.5938 11.0358C51.6002 4.94159 46.6224 0 40.4835 0C36.7052 0 33.3759 1.8722 31.3617 4.72508C30.9961 5.11353 3.31643 38.9787 3.00852 39.4117C1.14183 41.3858 0 44.0413 0 46.9578C0 53.052 4.97785 57.9936 11.1168 57.9936C14.895 57.9936 18.2243 56.1214 20.2321 53.2686C20.5978 52.8801 48.2774 19.0149 48.5853 18.5819Z" fill="url(#paint1_linear_11_5412)"/>
<path d="M96.2213 18.5819C98.088 16.6078 99.2298 13.9523 99.2298 11.0358C99.2298 4.94159 94.2519 0 88.113 0C84.3347 0 81.0055 1.8722 78.9913 4.72508C78.6256 5.11353 50.946 38.9787 50.6381 39.4117C48.7714 41.3858 47.6296 44.0413 47.6296 46.9578C47.6296 53.052 52.6074 57.9936 58.7463 57.9936C62.5246 57.9936 65.8538 56.1214 67.8617 53.2686C68.2273 52.8801 95.9069 19.0149 96.2149 18.5819H96.2213Z" fill="url(#paint2_linear_11_5412)"/>
<defs>
<linearGradient id="paint0_linear_11_5412" x1="18.4567" y1="-34.0581" x2="92.2956" y2="33.5056" gradientUnits="userSpaceOnUse">
<stop stop-color="#7756DB"/>
<stop offset="0.760417" stop-color="#3BF4DE"/>
</linearGradient>
<linearGradient id="paint1_linear_11_5412" x1="-13.8975" y1="-34.0508" x2="59.3388" y2="51.352" gradientUnits="userSpaceOnUse">
<stop stop-color="#7756DB"/>
<stop offset="0.760417" stop-color="#3BF4DE"/>
</linearGradient>
<linearGradient id="paint2_linear_11_5412" x1="33.7304" y1="-34.0508" x2="106.965" y2="51.361" gradientUnits="userSpaceOnUse">
<stop stop-color="#7756DB"/>
<stop offset="0.760417" stop-color="#3BF4DE"/>
</linearGradient>
</defs>
</svg>
