<svg width="774" height="187" viewBox="0 0 774 187" fill="none" xmlns="http://www.w3.org/2000/svg">
<g clip-path="url(#clip0_40_1459)">
<circle cx="56.9412" cy="27.0642" r="1.77319" fill="#CDCDCD"/>
<circle cx="56.9412" cy="63.7107" r="1.77319" fill="#CDCDCD"/>
<circle cx="93.5873" cy="27.0642" r="1.77319" fill="#CDCDCD"/>
<circle cx="93.5873" cy="63.7107" r="1.77319" fill="#CDCDCD"/>
<circle cx="130.233" cy="27.0642" r="1.77319" fill="#CDCDCD"/>
<circle cx="130.233" cy="63.7107" r="1.77319" fill="#CDCDCD"/>
<circle cx="166.879" cy="27.0642" r="1.77319" fill="#CDCDCD"/>
<circle cx="166.879" cy="63.7107" r="1.77319" fill="#CDCDCD"/>
<circle cx="56.9412" cy="100.357" r="1.77319" fill="#CDCDCD"/>
<circle cx="56.9412" cy="137.003" r="1.77319" fill="#CDCDCD"/>
<circle cx="93.5873" cy="100.357" r="1.77319" fill="#CDCDCD"/>
<circle cx="93.5873" cy="137.003" r="1.77319" fill="#CDCDCD"/>
<circle cx="130.233" cy="100.357" r="1.77319" fill="#CDCDCD"/>
<circle cx="130.233" cy="137.003" r="1.77319" fill="#CDCDCD"/>
<circle cx="166.879" cy="100.357" r="1.77319" fill="#CDCDCD"/>
<circle cx="166.879" cy="137.003" r="1.77319" fill="#CDCDCD"/>
<circle cx="56.9412" cy="173.649" r="1.77319" fill="#CDCDCD"/>
<circle cx="93.5873" cy="173.649" r="1.77319" fill="#CDCDCD"/>
<circle cx="130.233" cy="173.649" r="1.77319" fill="#CDCDCD"/>
<circle cx="166.879" cy="173.649" r="1.77319" fill="#CDCDCD"/>
<circle cx="203.525" cy="27.0642" r="1.77319" fill="#CDCDCD"/>
<circle cx="203.525" cy="63.7107" r="1.77319" fill="#CDCDCD"/>
<circle cx="240.171" cy="27.0642" r="1.77319" fill="#CDCDCD"/>
<circle cx="240.171" cy="63.7107" r="1.77319" fill="#CDCDCD"/>
<circle cx="276.817" cy="27.0642" r="1.77319" fill="#CDCDCD"/>
<circle cx="276.817" cy="63.7107" r="1.77319" fill="#CDCDCD"/>
<circle cx="20.295" cy="27.0642" r="1.77319" fill="#CDCDCD"/>
<circle cx="313.463" cy="27.0642" r="1.77319" fill="#CDCDCD"/>
<circle cx="20.295" cy="63.7107" r="1.77319" fill="#CDCDCD"/>
<circle cx="313.463" cy="63.7107" r="1.77319" fill="#CDCDCD"/>
<circle cx="203.525" cy="100.357" r="1.77319" fill="#CDCDCD"/>
<circle cx="203.525" cy="137.003" r="1.77319" fill="#CDCDCD"/>
<circle cx="240.171" cy="100.357" r="1.77319" fill="#CDCDCD"/>
<circle cx="240.171" cy="137.003" r="1.77319" fill="#CDCDCD"/>
<circle cx="276.817" cy="100.357" r="1.77319" fill="#CDCDCD"/>
<circle cx="276.817" cy="137.003" r="1.77319" fill="#CDCDCD"/>
<circle cx="20.295" cy="100.357" r="1.77319" fill="#CDCDCD"/>
<circle cx="313.463" cy="100.357" r="1.77319" fill="#CDCDCD"/>
<circle cx="20.295" cy="137.003" r="1.77319" fill="#CDCDCD"/>
<circle cx="313.463" cy="137.003" r="1.77319" fill="#CDCDCD"/>
<circle cx="203.525" cy="173.649" r="1.77319" fill="#CDCDCD"/>
<circle cx="240.171" cy="173.649" r="1.77319" fill="#CDCDCD"/>
<circle cx="276.817" cy="173.649" r="1.77319" fill="#CDCDCD"/>
<circle cx="20.295" cy="173.649" r="1.77319" fill="#CDCDCD"/>
<circle cx="313.463" cy="173.649" r="1.77319" fill="#CDCDCD"/>
<circle cx="350.109" cy="27.0642" r="1.77319" fill="#CDCDCD"/>
<circle cx="643.277" cy="27.0642" r="1.77319" fill="#CDCDCD"/>
<circle cx="350.109" cy="63.7107" r="1.77319" fill="#CDCDCD"/>
<circle cx="643.277" cy="63.7107" r="1.77319" fill="#CDCDCD"/>
<circle cx="386.755" cy="27.0642" r="1.77319" fill="#CDCDCD"/>
<circle cx="679.923" cy="27.0642" r="1.77319" fill="#CDCDCD"/>
<circle cx="386.755" cy="63.7107" r="1.77319" fill="#CDCDCD"/>
<circle cx="679.923" cy="63.7107" r="1.77319" fill="#CDCDCD"/>
<circle cx="423.401" cy="27.0642" r="1.77319" fill="#CDCDCD"/>
<circle cx="716.569" cy="27.0642" r="1.77319" fill="#CDCDCD"/>
<circle cx="423.401" cy="63.7107" r="1.77319" fill="#CDCDCD"/>
<circle cx="716.569" cy="63.7107" r="1.77319" fill="#CDCDCD"/>
<circle cx="460.047" cy="27.0642" r="1.77319" fill="#CDCDCD"/>
<circle cx="753.215" cy="27.0642" r="1.77319" fill="#CDCDCD"/>
<circle cx="460.047" cy="63.7107" r="1.77319" fill="#CDCDCD"/>
<circle cx="753.215" cy="63.7107" r="1.77319" fill="#CDCDCD"/>
<circle cx="350.109" cy="100.357" r="1.77319" fill="#CDCDCD"/>
<circle cx="643.277" cy="100.357" r="1.77319" fill="#CDCDCD"/>
<circle cx="350.109" cy="137.003" r="1.77319" fill="#CDCDCD"/>
<circle cx="643.277" cy="137.003" r="1.77319" fill="#CDCDCD"/>
<circle cx="386.755" cy="100.357" r="1.77319" fill="#CDCDCD"/>
<circle cx="679.923" cy="100.357" r="1.77319" fill="#CDCDCD"/>
<circle cx="386.755" cy="137.003" r="1.77319" fill="#CDCDCD"/>
<circle cx="679.923" cy="137.003" r="1.77319" fill="#CDCDCD"/>
<circle cx="423.401" cy="100.357" r="1.77319" fill="#CDCDCD"/>
<circle cx="716.569" cy="100.357" r="1.77319" fill="#CDCDCD"/>
<circle cx="423.401" cy="137.003" r="1.77319" fill="#CDCDCD"/>
<circle cx="716.569" cy="137.003" r="1.77319" fill="#CDCDCD"/>
<circle cx="460.047" cy="100.357" r="1.77319" fill="#CDCDCD"/>
<circle cx="753.215" cy="100.357" r="1.77319" fill="#CDCDCD"/>
<circle cx="460.047" cy="137.003" r="1.77319" fill="#CDCDCD"/>
<circle cx="753.215" cy="137.003" r="1.77319" fill="#CDCDCD"/>
<circle cx="350.109" cy="173.649" r="1.77319" fill="#CDCDCD"/>
<circle cx="643.277" cy="173.649" r="1.77319" fill="#CDCDCD"/>
<circle cx="386.755" cy="173.649" r="1.77319" fill="#CDCDCD"/>
<circle cx="679.923" cy="173.649" r="1.77319" fill="#CDCDCD"/>
<circle cx="423.401" cy="173.649" r="1.77319" fill="#CDCDCD"/>
<circle cx="716.569" cy="173.649" r="1.77319" fill="#CDCDCD"/>
<circle cx="460.047" cy="173.649" r="1.77319" fill="#CDCDCD"/>
<circle cx="753.215" cy="173.649" r="1.77319" fill="#CDCDCD"/>
<circle cx="496.693" cy="27.0642" r="1.77319" fill="#CDCDCD"/>
<circle cx="496.693" cy="63.7107" r="1.77319" fill="#CDCDCD"/>
<circle cx="533.339" cy="27.0642" r="1.77319" fill="#CDCDCD"/>
<circle cx="533.339" cy="63.7107" r="1.77319" fill="#CDCDCD"/>
<circle cx="569.985" cy="27.0642" r="1.77319" fill="#CDCDCD"/>
<circle cx="569.985" cy="63.7107" r="1.77319" fill="#CDCDCD"/>
<circle cx="606.631" cy="27.0642" r="1.77319" fill="#CDCDCD"/>
<circle cx="606.631" cy="63.7107" r="1.77319" fill="#CDCDCD"/>
<circle cx="496.693" cy="100.357" r="1.77319" fill="#CDCDCD"/>
<circle cx="496.693" cy="137.003" r="1.77319" fill="#CDCDCD"/>
<circle cx="533.339" cy="100.357" r="1.77319" fill="#CDCDCD"/>
<circle cx="533.339" cy="137.003" r="1.77319" fill="#CDCDCD"/>
<circle cx="569.985" cy="100.357" r="1.77319" fill="#CDCDCD"/>
<circle cx="569.985" cy="137.003" r="1.77319" fill="#CDCDCD"/>
<circle cx="606.631" cy="100.357" r="1.77319" fill="#CDCDCD"/>
<circle cx="606.631" cy="137.003" r="1.77319" fill="#CDCDCD"/>
<circle cx="496.693" cy="173.649" r="1.77319" fill="#CDCDCD"/>
<circle cx="533.339" cy="173.649" r="1.77319" fill="#CDCDCD"/>
<circle cx="569.985" cy="173.649" r="1.77319" fill="#CDCDCD"/>
<circle cx="606.631" cy="173.649" r="1.77319" fill="#CDCDCD"/>
</g>
<defs>
<clipPath id="clip0_40_1459">
<rect width="774" height="187" fill="white"/>
</clipPath>
</defs>
</svg>
