<svg width="20" height="17" viewBox="0 0 20 17" fill="none" xmlns="http://www.w3.org/2000/svg">
<path d="M19.1667 1.49999C18.3687 2.06289 17.4851 2.49341 16.55 2.77499C16.0481 2.19791 15.3811 1.7889 14.6392 1.60326C13.8973 1.41762 13.1163 1.46432 12.4017 1.73703C11.6872 2.00975 11.0737 2.49532 10.6442 3.12808C10.2146 3.76085 9.98976 4.51027 10 5.27499V6.10832C8.53554 6.14629 7.08441 5.8215 5.77585 5.16286C4.4673 4.50422 3.34194 3.53218 2.50001 2.33332C2.50001 2.33332 -0.833323 9.83332 6.66668 13.1667C4.95045 14.3316 2.90597 14.9158 0.833344 14.8333C8.33334 19 17.5 14.8333 17.5 5.24999C17.4992 5.01787 17.4769 4.78632 17.4333 4.55832C18.2838 3.71957 18.884 2.66058 19.1667 1.49999V1.49999Z" stroke="#27415C" stroke-linecap="round" stroke-linejoin="round"/>
</svg>
